@startuml US1008_DM
'https://plantuml.com/class-diagram

skinparam classAttributeIconSize 0
hide empty attributes
hide empty methods
skinparam classBackgroundColor beige
skinparam ArrowColor #222222

package "<<aggregate>> Enrolment" {
  entity Enrolment
}

entity Enrolment <<entity>> <<root>> {
}

package "<<aggregate>> Student" {
  entity Student

  class BirthDate
  class TaxPayerNumber
  class MecanographicNumber
}

entity Student <<entity>> <<root>> {
}


package "<<aggregate>> Enrolment" {
  entity Enrolment

  class State
}


entity Enrolment <<entity>> <<root>> {
  - createdAt
  - updatedAt
}

package "<<aggregate>> Student" {
  entity Student
}


entity Student <<entity>> <<root>> {
}

package "<<aggregate>> Course" {
  entity Course
}


entity Course <<entity>> <<root>> {
}

class State <<(V,#FF8B40) value object>> {}
note left of State
  PENDING
  ACCEPTED
  REJECTED
end note

Enrolment --> "1" State : has

Student --> "0..*" Enrolment : has
Enrolment -> "1" Course : is for

class BirthDate <<(V,#FF8B40) value object>> {}
class TaxPayerNumber <<(V,#FF8B40) value object>> {}
class MecanographicNumber <<(V,#FF8B40) value object>> {}

Student --> "1" BirthDate : characterized by
Student --> "1" TaxPayerNumber : characterized by
Student --> "1" MecanographicNumber : identified by

@enduml
