@startuml US1009_DM
'https://plantuml.com/class-diagram

skinparam classAttributeIconSize 0
hide empty attributes
hide empty methods
skinparam classBackgroundColor beige
skinparam ArrowColor #222222

package "<<aggregate>> Enrolment" {
  entity Enrolment

  class State
}


entity Enrolment <<entity>> <<root>> {
  - createdAt
  - updatedAt
}

package "<<aggregate>> Student" {
  entity Student
}


entity Student <<entity>> <<root>> {
}

package "<<aggregate>> Course" {
  entity Course

  class EnrolmentState
  class EnrolmentLimits
}

class EnrolmentLimits <<(V,#FF8B40) value object>> {
  - min
  - max
}

class EnrolmentState <<(V,#FF8B40) value object>> {}
note bottom of EnrolmentState : CLOSED\nOPEN

entity Course <<entity>> <<root>> {
}

class State <<(V,#FF8B40) value object>> {}
note left of State
  PENDING
  ACCEPTED
  REJECTED
end note

Enrolment --> "1" State : has

Student --> "0..*" Enrolment : has
Enrolment -> "1" Course : is for

Course --> "1" EnrolmentState : is in
Course --> "1" EnrolmentLimits : has

@enduml
