@startuml US1003_CD

class RepositoryFactory {
  + RepositoryFactory()
}

interface CourseRepository {
  {abstract} findAllNotClosed()
  {abstract} save(course)
}

class InMemoryCourseRepository {
  + findAllNotClosed()
  + save(course)
}

class JpaCourseRepository {
  + findAllNotClosed()
  + save(course)
}

class PersistenceContext {
  + repositories()
}

class CourseListService {
  - courseRepository

  + CourseListService(courseRepository)

  + listNotClosedCourses()
  + toggleEnrolmentState(course)
}

class ManageCourseEnrolmentStateUI {}

class ManageCourseEnrolmentStateController {
  - courseRepository
  - authorizationService
  - courseListService

  + ManageCourseEnrolmentStateController(courseRepository, authorizationService)

  + listNotClosedCourses()
  + toggleEnrolmentState(course)
}

class Course {
  - code
  - title
  - description
  - enrolmentLimits
  - courseState
  - courseEnrolmentState
  - createdAt

  + toggleEnrolmentState()
  + toDto()
}

enum CourseState {
  CLOSED
  OPEN
  IN_PROGRESS
  FINISHED
}

enum CourseEnrolmentState {
  OPEN
  CLOSED
}

class CourseDTO {
  - code
  - title
  - description
  - enrolmentLimits
  - courseState
  - courseEnrolmentState
  - createdAt
}

ManageCourseEnrolmentStateUI ..> ManageCourseEnrolmentStateController
ManageCourseEnrolmentStateUI ..> PersistenceContext
ManageCourseEnrolmentStateController --> CourseListService
PersistenceContext ..> RepositoryFactory
RepositoryFactory --> CourseRepository

CourseListService ..> Course
CourseListService ..> CourseDTO
CourseListService ..> CourseRepository
ManageCourseEnrolmentStateController --> CourseRepository

CourseRepository <|.. InMemoryCourseRepository
CourseRepository <|.. JpaCourseRepository

Course --> CourseState
Course --> CourseEnrolmentState

@enduml
