@startuml DM-EVENTS
'https://plantuml.com/class-diagram

skinparam classAttributeIconSize 0
hide empty attributes
hide empty methods
skinparam classBackgroundColor beige
skinparam ArrowColor #222222

package "<<aggregate>> Event" {
    entity Event

    class Time
    class Duration
    ' class Type
}

entity Event <<(A,#adb9d1)>> <<root>> {
}

class Time <<(V,#FF8B40) value object>> {}
class Duration <<(V,#FF8B40) value object>> {}
' class Type <<(V,#FF8B40) value object>> {}

Event --> "1" Time : is characterized by
Event --> "1" Duration : has
' Event --> "1" Type : is characterized by

package "<<aggregate>> Meeting" {
    entity Meeting
}

entity Meeting <<entity>> <<root>> {
  -id
}

package "<<aggregate>> Class" {
    entity Class
}

entity Class <<entity>> <<root>> {
  -id
}

package "<<aggregate>> ExtraordinaryClass" {
    entity ExtraordinaryClass
}

entity ExtraordinaryClass <<entity>> <<root>> {
  -id
}

package "<<aggregate>> Course" {
    entity Course
}

entity Course <<entity>> <<root>> {
  -id
}

package "<<aggregate>> Teacher" {
    entity Teacher
}

entity Teacher <<entity>> <<root>> {
  -id
}

package "<<aggregate>> Student" {
    entity Student
}

entity Student <<entity>> <<root>> {
  -id
}

Class --|> Event 
Meeting --|> Event

Meeting --> "1" Course : is related to
Teacher --> "0..*" Meeting : scheduled by
Teacher --> "1..*" Student : invites

ExtraordinaryClass --|> Event
ExtraordinaryClass --> "1" Teacher : scheduled by

@enduml